#!OML:ASF E:\acrobat2\Project_11_07_03\Capture day 1\Session 1\Acrobat.ASF
:FULLY-SPECIFIED
:DEGREES
657
root 9.31187 18.3208 -15.9409 186.536 -1.6738 -179.921
lowerback -10.983 1.38628 0.520322
upperback -4.44824 1.36708 -1.77048
thorax 1.57828 0.465001 -1.96689
lowerneck 1.76008 -2.14542 -1.08759
upperneck -7.63958 -2.91132 2.94816
head -2.666 -1.59038 1.21757
rclavicle 2.28602e-015 -1.39149e-014
rhumerus -46.2157 6.78701 -91.4292
rradius 25.535
rwrist 2.54875
rhand -5.49908 -401.079
rfingers 7.12502
rthumb 20.3138 289.963
lclavicle 2.28602e-015 -1.39149e-014
lhumerus -39.1471 -19.4689 93.7913
lradius 22.7953
lwrist 8.15888
lhand -1.85646 -371.406
lfingers 7.12502
lthumb 23.8111 17.1385
rfemur 2.75919 6.08924 24.2371
rtibia 0.556851
rfoot 342.856 -12.0976
rtoes 12.5411
lfemur -0.788232 -1.07939 -18.1692
ltibia 4.38376
lfoot -2.89601 -9.51931
ltoes 31.7388
658
root 9.30266 18.3205 -15.9389 186.595 -1.71088 -180.018
lowerback -11.0369 1.37075 0.446033
upperback -4.37671 1.36234 -1.79317
thorax 1.68043 0.46688 -1.94793
lowerneck 1.86691 -2.06428 -1.26508
upperneck -7.87604 -2.80111 3.18108
head -2.7635 -1.54422 1.32767
rclavicle 1.963e-014 -3.4191e-014
rhumerus -46.0733 6.6683 -91.3388
rradius 25.5577
rwrist 2.59817
rhand -5.52586 -400.889
rfingers 7.12502
rthumb 20.2881 290.151
lclavicle 1.963e-014 -3.4191e-014
lhumerus -39.0065 -19.5142 93.787
lradius 22.8394
lwrist 8.22571
lhand -1.82867 -371.33
lfingers 7.12502
lthumb 23.8377 17.2114
rfemur 2.66947 5.97867 24.0716
rtibia 0.623052
rfoot 342.918 -11.9556
rtoes 13.0765
lfemur -0.881647 -1.14832 -18.3356
ltibia 4.45575
lfoot -2.97484 -9.60393
ltoes 31.688
659
root 9.29409 18.3191 -15.9385 186.627 -1.77828 -180.153
lowerback -11.1082 1.33824 0.277662
upperback -4.29522 1.34542 -1.77736
thorax 1.79877 0.464161 -1.8372
lowerneck 1.87785 -1.98562 -1.46275
upperneck -7.94284 -2.69643 3.31995
head -2.78739 -1.49266 1.40604
rclavicle 2.88238e-015 -5.1684e-015
rhumerus -45.9559 6.62991 -91.2161
rradius 25.5956
rwrist 2.54843
rhand -5.61987 -400.823
rfingers 7.12502
rthumb 20.1977 290.208
lclavicle 2.88238e-015 -5.1684e-015
lhumerus -38.8753 -19.697 93.9534
lradius 22.7841
lwrist 8.39264
lhand -1.75525 -370.939
lfingers 7.12502
lthumb 23.9081 17.5931
rfemur 2.65013 6.06402 23.9024
rtibia 0.627878
rfoot 342.792 -12.0044
rtoes 14.0476
lfemur -0.939429 -1.22328 -18.5484
ltibia 4.49903
lfoot -2.8947 -9.65235
ltoes 31.9335
660
root 9.28578 18.3175 -15.9391 186.612 -1.8461 -180.205
lowerback -11.1941 1.30112 0.173816
upperback -4.15804 1.32376 -1.72947
thorax 1.98378 0.46239 -1.72956
lowerneck 1.59307 -1.943 -1.50838
upperneck -7.82939 -2.64487 3.29661
head -2.69751 -1.46345 1.39727
rclavicle 1.70955e-014 -2.10712e-014
rhumerus -45.8505 6.59381 -91.059
rradius 25.753
rwrist 2.65319
rhand -5.6983 -400.856
rfingers 7.12502
rthumb 20.1224 290.167
lclavicle 1.70955e-014 -2.10712e-014
lhumerus -38.6635 -19.8841 94.1011
lradius 22.6816
lwrist 8.60419
lhand -1.65545 -370.541
lfingers 7.12502
lthumb 24.0038 17.9786
rfemur 2.70557 6.13317 23.8479
rtibia 0.594618
rfoot 342.73 -12.0516
rtoes 14.7786
lfemur -0.978618 -1.23598 -18.6519
ltibia 4.5971
lfoot -2.78717 -9.68471
ltoes 32.3372
661
root 9.27887 18.3174 -15.9377 186.624 -1.88595 -180.087
lowerback -11.2016 1.27806 0.254315
upperback -4.08304 1.29517 -1.66985
thorax 2.06555 0.453527 -1.71598
lowerneck 1.23827 -1.95838 -1.44207
upperneck -7.63775 -2.67038 3.20921
head -2.56864 -1.47242 1.3475
rclavicle 4.96962e-016 5.96354e-015
rhumerus -45.8636 6.59645 -90.9971
rradius 26.0045
rwrist 2.73975
rhand -5.7407 -400.845
rfingers 7.12502
rthumb 20.0816 290.172
lclavicle 4.96962e-016 5.96354e-015
lhumerus -38.5229 -19.912 94.0934
lradius 22.6527
lwrist 8.63631
lhand -1.40723 -370.394
lfingers 7.12502
lthumb 24.2418 18.0937
rfemur 2.67672 6.25929 24.0004
rtibia 0.631407
rfoot 342.665 -12.1409
rtoes 15.1762
lfemur -1.05052 -1.25251 -18.526
ltibia 4.71128
lfoot -2.82691 -9.76586
ltoes 32.5091
662
root 9.27372 18.3185 -15.9351 186.627 -1.92707 -179.916
lowerback -11.0777 1.26727 0.402148
upperback -4.1083 1.26549 -1.6224
thorax 1.97317 0.438823 -1.7554
lowerneck 1.21404 -1.98882 -1.53365
upperneck -7.56057 -2.7057 3.32869
head -2.53545 -1.48962 1.40094
rclavicle 9.93923e-017 1.35174e-014
rhumerus -45.9882 6.69618 -91.0942
rradius 26.2192
rwrist 2.60668
rhand -5.74187 -400.808
rfingers 7.12502
rthumb 20.0805 290.21
lclavicle 9.93923e-017 1.35174e-014
lhumerus -38.5444 -19.9473 94.0946
lradius 22.6132
lwrist 8.6338
lhand -1.22004 -370.609
lfingers 7.12502
lthumb 24.4213 17.8545
rfemur 2.63865 6.47218 24.2342
rtibia 0.677194
rfoot 342.585 -12.3599
rtoes 15.0984
lfemur -1.08642 -1.29726 -18.3132
ltibia 4.76657
lfoot -2.92202 -9.833
ltoes 32.1828
663
root 9.26916 18.3187 -15.9335 186.619 -1.96435 -179.933
lowerback -11.0257 1.25243 0.336002
upperback -4.09487 1.25546 -1.61314
thorax 1.95667 0.435567 -1.71026
lowerneck 1.57723 -1.9902 -1.73863
upperneck -7.85593 -2.70202 3.58046
head -2.69711 -1.49614 1.53162
rclavicle 2.08724e-014 -2.70347e-014
rhumerus -46.0139 6.72579 -91.1434
rradius 26.3822
rwrist 2.57114
rhand -5.60533 -400.89
rfingers 7.12502
rthumb 20.2117 290.142
lclavicle 2.08724e-014 -2.70347e-014
lhumerus -38.5457 -19.9878 94.1225
lradius 22.5997
lwrist 8.5871
lhand -1.20663 -370.878
lfingers 7.12502
lthumb 24.4341 17.5841
rfemur 2.68083 6.73527 24.2488
rtibia 0.621135
rfoot 342.508 -12.6147
rtoes 15.0582
lfemur -1.10682 -1.35651 -18.3347
ltibia 4.78351
lfoot -2.94128 -9.8714
ltoes 32.0785
